<svg width="52" height="14" viewBox="0 0 52 14" fill="none" xmlns="http://www.w3.org/2000/svg">
<path d="M4.0973 13.0703V12.8153L5.2873 12.4753V9.92531H0.442295L0.102295 9.41531L6.4773 1.00031H8.0923V9.16031H9.8773V9.92531H8.0923V12.4753L9.2823 12.8153V13.0703H4.0973ZM1.03729 9.16031H5.2873V3.55031L1.03729 9.16031ZM15.6586 13.3253C14.7406 13.3253 13.9076 13.0816 13.1596 12.5943C12.4116 12.107 11.8166 11.3986 11.3746 10.4693C10.944 9.52865 10.7286 8.41231 10.7286 7.12031C10.7286 5.82831 10.944 4.71765 11.3746 3.78831C11.8166 2.84765 12.4116 2.13365 13.1596 1.64631C13.9076 1.15898 14.7406 0.915312 15.6586 0.915312C16.5766 0.915312 17.4096 1.15898 18.1576 1.64631C18.9056 2.13365 19.495 2.84765 19.9256 3.78831C20.3676 4.71765 20.5886 5.82831 20.5886 7.12031C20.5886 8.41231 20.3676 9.52865 19.9256 10.4693C19.495 11.3986 18.9056 12.107 18.1576 12.5943C17.4096 13.0816 16.5766 13.3253 15.6586 13.3253ZM15.6586 12.9853C16.962 12.9853 17.6136 11.0303 17.6136 7.12031C17.6136 3.21031 16.962 1.25531 15.6586 1.25531C14.3553 1.25531 13.7036 3.21031 13.7036 7.12031C13.7036 11.0303 14.3553 12.9853 15.6586 12.9853ZM28.4969 3.29531V12.3053L29.8569 12.8153V13.0703H26.6269V12.8153L27.9869 12.3053V1.68031L26.9669 1.42531V1.17031H29.0919C29.6813 1.17031 30.1459 1.29498 30.4859 1.54431C30.8373 1.78231 31.1376 2.13931 31.3869 2.61531L35.0929 9.70431L37.9319 2.61531C38.1246 2.11665 38.3853 1.75398 38.7139 1.52731C39.0426 1.28931 39.5469 1.17031 40.2269 1.17031H42.0119V1.42531L40.9919 1.68031V12.5603L42.0119 12.8153V13.0703H37.1669V12.8153L38.1869 12.5603V3.29531L34.1919 13.2403H33.6819L28.4969 3.29531ZM43.3779 12.3053C43.3779 11.6366 43.5083 11.0303 43.7689 10.4863C44.0409 9.93098 44.3696 9.44931 44.7549 9.04131C45.1403 8.63331 45.6446 8.15165 46.2679 7.59631C46.8459 7.08631 47.2993 6.66131 47.6279 6.32131C47.9566 5.96998 48.2343 5.57898 48.4609 5.14831C48.6876 4.70631 48.8009 4.23031 48.8009 3.72031C48.8009 2.97231 48.6196 2.38864 48.2569 1.96931C47.8943 1.54998 47.4239 1.34031 46.8459 1.34031C46.5173 1.34031 46.1829 1.38564 45.8429 1.47631L45.4859 1.59531V4.31531L45.2649 4.36631C45.0836 4.38898 44.9306 4.40031 44.8059 4.40031C44.4206 4.40031 44.1089 4.28698 43.8709 4.06031C43.6443 3.82231 43.5309 3.51065 43.5309 3.12531C43.5309 2.76265 43.6669 2.41131 43.9389 2.07131C44.2223 1.73131 44.6359 1.45365 45.1799 1.23831C45.7353 1.02298 46.4039 0.915312 47.1859 0.915312C48.7159 0.915312 49.8493 1.22131 50.5859 1.83331C51.3226 2.44531 51.6909 3.30098 51.6909 4.40031C51.6909 5.09165 51.5096 5.68665 51.1469 6.18531C50.7956 6.68398 50.3593 7.09765 49.8379 7.42631C49.3279 7.75498 48.6423 8.12898 47.7809 8.54831C47.0556 8.89965 46.4663 9.21131 46.0129 9.48331C45.5709 9.74398 45.1573 10.0613 44.7719 10.4353C44.3979 10.8093 44.1316 11.2343 43.9729 11.7103H50.2629C50.3423 11.0983 50.5349 10.5883 50.8409 10.1803C50.9656 9.98765 51.1129 9.81765 51.2829 9.67031H51.7929V13.0703H43.3779V12.3053Z" fill="white"/>
</svg>
